<svg viewBox="0 0 230 65" version="1.1" xmlns="http://www.w3.org/2000/svg" style="fill-rule:evenodd;fill:#333536;">
    <path d="M23.667,8.933c12.964,0 23.49,10.526 23.49,23.491c0,12.964 -10.526,23.49 -23.49,23.49c-12.965,0 -23.491,-10.526 -23.491,-23.49c0,-12.965 10.526,-23.491 23.491,-23.491Zm-12.265,30.749l1.367,-3.127c0,0 0.947,0.19 1.592,0.358c0.646,0.168 1.276,0.046 1.497,-0.734c0.221,-0.78 2.459,-10.616 2.613,-11.225c0.18,-0.71 0.046,-1.216 -1.041,-1.497c-0.716,-0.185 -1.977,-0.483 -1.977,-0.483l0.617,-3.029l5.492,1.222l0.896,-4.201l2.756,0.638l-0.917,4.213l1.841,0.434l1.007,-4.197l2.608,0.615l-0.855,4.228c0,0 4.08,1.135 5.042,4.024c0.74,2.222 -0.397,5.281 -2.843,6.147c3.404,1.9 2.978,6.624 0.119,8.968c-2.599,2.131 -7.196,0.667 -7.196,0.667l-1.006,4.205l-2.65,-0.606l0.893,-4.219l-1.844,-0.414l-1,4.127l-2.9,-0.724l1.029,-4.156l-5.14,-1.234Zm8.862,-1.378c0.256,-1.004 1.075,-4.264 1.349,-5.463c5.052,1.192 6.818,2.869 6.404,4.594c-0.415,1.725 -2.603,2.108 -7.753,0.869Zm1.942,-8.091c0.249,-0.985 1.045,-4.15 1.276,-5.313c2.949,0.644 5.97,1.711 5.487,3.722c-0.719,2.996 -3.437,2.326 -6.763,1.591Z"/>
    <path d="M62.705,55.914c-4.133,0 -8.482,-0.5 -12.251,-2.319l10.288,-43.235l9.218,-1.427l-3.687,15.343c4.448,-2.001 10.089,-1.388 13.321,2.617c2.098,2.6 2.578,5.832 2.676,9.039c0.33,10.788 -8.911,19.982 -19.565,19.982m1.724,-23.847l-3.925,16.294c1.655,0.276 3.334,0.414 4.996,-0.015c5.86,-1.509 8.915,-8.749 7.731,-14.302c-0.191,-0.894 -0.56,-1.971 -1.29,-2.62c-1.936,-1.724 -5.716,-0.954 -7.512,0.643"/>
    <path d="M92.558,55.081l-8.801,0l7.433,-31.28l8.861,0l-7.493,31.28Zm4.282,-35.087c-1.229,0 -2.339,-0.366 -3.33,-1.1c-0.991,-0.733 -1.487,-1.853 -1.487,-3.36c0,-0.832 0.168,-1.615 0.505,-2.349c0.337,-0.733 0.783,-1.368 1.339,-1.903c0.555,-0.535 1.199,-0.961 1.932,-1.278c0.734,-0.318 1.517,-0.476 2.349,-0.476c1.229,0 2.339,0.367 3.331,1.1c0.991,0.734 1.486,1.854 1.486,3.36c0,0.833 -0.168,1.616 -0.505,2.349c-0.337,0.734 -0.783,1.368 -1.338,1.903c-0.555,0.535 -1.2,0.962 -1.933,1.279c-0.733,0.317 -1.516,0.475 -2.349,0.475Z"/>
    <path d="M108.199,16.01l9.217,-1.427l-2.259,9.218l9.871,0l-1.784,7.255l-9.812,0l-2.617,10.942c-0.218,0.837 -0.418,1.692 -0.446,2.557c-0.171,5.314 6.521,3.969 9.723,2.855l0.655,6.779c-1.261,0.462 -2.545,0.889 -3.866,1.13c-4.065,0.742 -12.796,1.396 -14.51,-4.073c-0.491,-1.565 -0.833,-3.208 -0.833,-4.847c0,-1.943 0.388,-3.878 0.833,-5.769l5.828,-24.62"/>
    <path d="M151.79,24.811l-3.033,6.899c-3.04,-1.216 -6.4,-1.857 -9.575,-0.498c-4.964,2.124 -7.825,10.884 -4.282,15.336c2.463,3.094 7.939,1.937 11.002,0.624l0.654,7.077c-3.123,1.227 -5.03,1.565 -8.504,1.665c-2.051,0.059 -4.325,-0.307 -6.244,-1.071c-7.839,-3.119 -8.639,-12.828 -6.066,-19.862c3.799,-10.387 16.121,-14.962 26.048,-10.17"/>
    <path d="M162.97,55.914c-9.215,0 -13.495,-7.761 -12.08,-16.473c1.445,-8.889 8.011,-16.182 17.313,-16.473c9.264,-0.29 13.424,8.034 12.087,16.473c-1.394,8.807 -7.919,16.473 -17.32,16.473m4.401,-25.453c-5.694,0 -7.786,7.158 -7.969,11.656c-0.132,3.24 0.823,6.189 4.4,6.304c5.684,0.181 7.793,-7.314 7.969,-11.656c0.127,-3.126 -0.814,-6.304 -4.4,-6.304"/>
    <path d="M190.861,55.081l-8.801,0l7.433,-31.28l8.861,0l-7.493,31.28Zm4.282,-35.087c-1.229,0 -2.339,-0.366 -3.331,-1.1c-0.991,-0.733 -1.486,-1.853 -1.486,-3.36c0,-0.832 0.168,-1.615 0.505,-2.349c0.337,-0.733 0.783,-1.368 1.338,-1.903c0.555,-0.535 1.2,-0.961 1.933,-1.278c0.733,-0.318 1.517,-0.476 2.349,-0.476c1.229,0 2.339,0.367 3.33,1.1c0.992,0.734 1.487,1.854 1.487,3.36c0,0.833 -0.168,1.616 -0.505,2.349c-0.337,0.734 -0.783,1.368 -1.338,1.903c-0.556,0.535 -1.2,0.962 -1.933,1.279c-0.734,0.317 -1.517,0.475 -2.349,0.475Z"/>
    <path d="M205.193,25.228c6.887,-2.026 20.254,-5.346 23.279,4.111c0.266,0.833 0.424,1.706 0.494,2.579c0.168,2.084 -0.145,4.261 -0.639,6.274l-4.044,16.889l-8.861,0l3.925,-16.532c0.791,-3.431 1.628,-7.771 -3.212,-8.028c-1.174,-0.063 -2.356,0.126 -3.508,0.356l-5.769,24.204l-8.861,0l7.196,-29.853"/>
</svg>
